<?xml version="1.0" standalone="no"?>
<!DOCTYPE svg PUBLIC "-//W3C//DTD SVG 20010904//EN"
 "http://www.w3.org/TR/2001/REC-SVG-20010904/DTD/svg10.dtd">
<svg version="1.0" xmlns="http://www.w3.org/2000/svg"
 width="1280.000000pt" height="816.000000pt" viewBox="0 0 1280.000000 816.000000"
 preserveAspectRatio="xMidYMid meet">
<metadata>
Created by potrace 1.15, written by Peter Selinger 2001-2017
</metadata>
<g transform="translate(0.000000,816.000000) scale(0.100000,-0.100000)"
fill="#2196f3" stroke="none">
<path d="M1108 6211 c-61 -13 -129 -62 -163 -115 l-30 -49 -3 -1902 -2 -1902
28 -54 c20 -39 41 -62 77 -84 l48 -30 1101 -3 c846 -2 1111 0 1146 10 59 16
144 97 159 153 15 56 15 3764 0 3818 -13 47 -69 112 -119 137 -35 18 -90 19
-1121 24 -596 3 -1101 2 -1121 -3z"/>
<path d="M3943 6210 c-79 -16 -144 -66 -180 -139 -17 -34 -18 -128 -18 -1941
0 -1755 1 -1907 17 -1935 24 -45 68 -85 113 -106 38 -18 94 -19 1136 -19 1192
0 1138 -2 1214 55 19 15 45 50 60 78 l25 51 0 1891 0 1891 -26 52 c-18 35 -41
63 -72 85 l-47 32 -525 6 c-751 9 -1648 8 -1697 -1z"/>
<path d="M6773 6210 c-78 -17 -139 -64 -179 -140 -18 -34 -19 -104 -22 -1915
-2 -1396 0 -1891 9 -1922 15 -54 72 -121 123 -144 39 -18 94 -19 1136 -19 724
0 1108 4 1132 10 54 15 118 68 144 120 l23 45 1 1898 c0 1570 -2 1903 -13
1930 -21 49 -63 93 -110 116 -41 20 -64 20 -1122 25 -627 3 -1097 2 -1122 -4z"/>
<path d="M9601 6210 c-93 -20 -171 -100 -191 -193 -7 -36 -10 -620 -8 -1917
l3 -1865 22 -42 c28 -51 86 -100 135 -113 23 -7 432 -9 1140 -8 l1103 3 41 22
c47 25 89 71 113 123 14 32 16 214 16 1920 0 1797 -1 1887 -18 1932 -20 50
-71 102 -122 124 -25 10 -255 14 -1111 18 -661 3 -1096 2 -1123 -4z"/>
</g>
</svg>
